<?xml version="1.0" encoding="UTF-8"?>
<svg version="1.1" xmlns="http://www.w3.org/2000/svg" width="512" height="512">
<path d="M0 0 C3.48209317 0.00478262 6.96413382 -0.00782269 10.44620943 -0.01801741 C17.24734619 -0.03511307 24.04839018 -0.03606464 30.84954283 -0.03080451 C36.38484915 -0.02674369 41.92012832 -0.02822891 47.45543337 -0.03355277 C48.24679511 -0.03430119 49.03815685 -0.03504961 49.85349925 -0.03582071 C51.46177608 -0.03735238 53.07005291 -0.03889073 54.67832974 -0.04043568 C69.72213716 -0.05412771 84.76589241 -0.04874665 99.80969861 -0.03725047 C113.53012424 -0.02732494 127.25041487 -0.04025286 140.97081968 -0.06418466 C155.10563188 -0.08865088 169.24038141 -0.09816492 183.37521434 -0.09153193 C191.29210524 -0.08805592 199.2088925 -0.09016367 207.12576723 -0.10778296 C213.86618255 -0.12259964 220.60642124 -0.12301839 227.34683344 -0.10571205 C230.77628414 -0.09727601 234.20542062 -0.09486733 237.63485384 -0.1103636 C276.67828501 -0.24984791 309.96307491 10.39926741 338.33774996 38.09433305 C360.9305744 61.078389 374.44843472 92.37024557 374.3551755 124.64889848 C374.35970661 125.82110334 374.36423772 126.99330821 374.36890614 128.20103443 C374.37929492 131.41900688 374.38089006 134.63683695 374.37851739 137.85482061 C374.37810613 141.33970327 374.38917773 144.82455366 374.39863253 148.30942094 C374.41517849 155.12445435 374.4207392 161.93945315 374.42185728 168.75450498 C374.42281102 174.30134412 374.4269375 179.84817194 374.43325853 185.39500749 C374.45085521 201.16001038 374.46010013 216.92498615 374.45859759 232.68999892 C374.45847772 233.96232205 374.45847772 233.96232205 374.45835543 235.26034868 C374.45827367 236.10961351 374.4581919 236.95887833 374.45810767 237.83387846 C374.45729571 251.58041973 374.47641463 265.3268512 374.50463216 279.07336074 C374.53345166 293.2261203 374.54716742 307.37882648 374.54544461 321.53161609 C374.54478372 329.46198772 374.5501426 337.39224428 374.57180071 345.32258928 C374.59013257 352.07773174 374.59426266 358.83270701 374.58078186 365.58786374 C374.5743114 369.02539421 374.57391588 372.46260511 374.59148836 375.90010393 C374.75538281 415.20025914 364.27110953 446.49915589 337.08774996 475.40683305 C336.56181246 475.99722368 336.03587496 476.5876143 335.49399996 477.19589555 C322.70113603 490.96780519 304.52788931 500.838379 286.90024996 506.84433305 C285.92414766 507.17848222 285.92414766 507.17848222 284.92832613 507.51938188 C282.66418323 508.23354875 280.38945781 508.82341993 278.08774996 509.40683305 C276.60783131 509.78525897 276.60783131 509.78525897 275.09801531 510.17132986 C262.19156637 513.02539656 249.34240064 512.8442104 236.17549992 512.81366611 C232.69340674 512.80888349 229.2113661 512.82148879 225.72929049 512.83168352 C218.92815373 512.84877918 212.12710973 512.84973074 205.32595709 512.84447061 C199.79065076 512.84040979 194.2553716 512.84189502 188.72006655 512.84721887 C187.92870481 512.84796729 187.13734307 512.84871572 186.32200067 512.84948682 C184.71372383 512.85101849 183.105447 512.85255683 181.49717018 512.85410178 C166.45336276 512.86779381 151.4096075 512.86241275 136.3658013 512.85091657 C122.64537568 512.84099105 108.92508505 512.85391896 95.20468023 512.87785076 C81.06986803 512.90231699 66.9351185 512.91183102 52.80028558 512.90519804 C44.88339467 512.90172203 36.96660742 512.90382978 29.04973269 512.92144907 C22.30931737 512.93626574 15.56907868 512.93668449 8.82866648 512.91937815 C5.39921578 512.91094212 1.9700793 512.90853343 -1.45935392 512.92402971 C-40.73460662 513.06434221 -72.0233044 502.57257843 -100.91225004 475.40683305 C-101.79783598 474.6179268 -101.79783598 474.6179268 -102.70131254 473.81308305 C-116.47322217 461.02021913 -126.34379599 442.8469724 -132.34975004 425.21933305 C-132.57251616 424.56859819 -132.79528227 423.91786333 -133.02479887 423.24740922 C-133.73896574 420.98326633 -134.32883692 418.70854091 -134.91225004 416.40683305 C-135.29067596 414.9269144 -135.29067596 414.9269144 -135.67674685 413.4170984 C-138.53081355 400.51064946 -138.34962739 387.66148373 -138.31908309 374.49458301 C-138.31430048 371.01248984 -138.32690578 367.53044919 -138.33710051 364.04837358 C-138.35419617 357.24723682 -138.35514773 350.44619283 -138.3498876 343.64504018 C-138.34582678 338.10973386 -138.347312 332.5744547 -138.35263586 327.03914964 C-138.35338428 326.2477879 -138.3541327 325.45642616 -138.35490381 324.64108376 C-138.35643548 323.03280693 -138.35797382 321.4245301 -138.35951877 319.81625327 C-138.3732108 304.77244585 -138.36782974 289.7286906 -138.35633356 274.6848844 C-138.34640804 260.96445877 -138.35933595 247.24416814 -138.38326775 233.52376333 C-138.40773398 219.38895113 -138.41724801 205.2542016 -138.41061503 191.11936867 C-138.40713902 183.20247777 -138.40924677 175.28569051 -138.42686605 167.36881578 C-138.44168273 160.62840046 -138.44210148 153.88816178 -138.42479514 147.14774957 C-138.41635911 143.71829887 -138.41395042 140.28916239 -138.4294467 136.85972917 C-138.56656814 98.47769363 -128.65833974 66.72079698 -101.91225004 38.40683305 C-101.22646879 37.65659868 -100.54068754 36.9063643 -99.83412504 36.13339555 C-86.61963251 22.18476455 -68.82205439 12.12352826 -50.72475004 5.96933305 C-50.07409575 5.74664751 -49.42344145 5.52396196 -48.75307035 5.29452837 C-46.48886126 4.58015223 -44.2140833 3.99026825 -41.91225004 3.40683305 C-40.92563761 3.15454911 -39.93902517 2.90226516 -38.92251539 2.64233625 C-26.01606645 -0.21173045 -13.16690072 -0.03054429 0 0 Z M-66.91225004 65.40683305 C-67.67408598 66.07327837 -68.43592192 66.73972368 -69.22084379 67.4263643 C-84.38841266 81.59502916 -94.22532746 103.20604627 -95.00608635 123.89313161 C-95.04653733 126.76632149 -95.05514172 129.63797147 -95.05269194 132.51144731 C-95.05566306 133.60955279 -95.05863418 134.70765828 -95.06169534 135.83903968 C-95.07034702 139.50812964 -95.0718876 143.17718684 -95.07338285 146.84628618 C-95.07801357 149.48157215 -95.08301844 152.1168552 -95.08842802 154.75213945 C-95.10197281 161.90540276 -95.10803022 169.05866045 -95.11243868 176.21193445 C-95.115208 180.68528299 -95.11944663 185.15862939 -95.12394285 189.63197649 C-95.13613118 202.03657461 -95.1464309 214.44117103 -95.14981794 226.84577501 C-95.15003751 227.63872408 -95.15025708 228.43167316 -95.1504833 229.248651 C-95.15070157 230.04341481 -95.15091985 230.83817861 -95.15114474 231.65702617 C-95.1515882 233.26731336 -95.15203476 234.87760055 -95.15248442 236.48788774 C-95.15270585 237.28663275 -95.15292728 238.08537776 -95.15315542 238.90832716 C-95.15709929 251.83655506 -95.17454272 264.76472645 -95.19784394 277.69293255 C-95.22161715 290.99125124 -95.23402253 304.28954165 -95.23518586 317.58788192 C-95.23609935 325.04421098 -95.24176878 332.50046642 -95.26000547 339.95677507 C-95.27548739 346.30879714 -95.28047969 352.66072284 -95.27226737 359.01276022 C-95.26838905 362.24720633 -95.27081882 365.48142047 -95.28332472 368.71585023 C-95.38297829 396.1105747 -91.67011807 420.08319379 -72.91225004 441.40683305 C-71.91258207 442.54958696 -71.91258207 442.54958696 -70.89271879 443.7154268 C-56.72405394 458.88299567 -35.11303682 468.71991047 -14.42595148 469.50066936 C-11.55276161 469.54112034 -8.68111163 469.54972473 -5.80763578 469.54727495 C-4.7095303 469.55024607 -3.61142482 469.55321719 -2.48004341 469.55627835 C1.18904655 469.56493003 4.85810374 469.56647061 8.52720308 469.56796587 C11.16248905 469.57259658 13.7977721 469.57760145 16.43305635 469.58301103 C23.58631967 469.59655582 30.73957735 469.60261323 37.89285135 469.60702169 C42.36619989 469.60979101 46.8395463 469.61402964 51.31289339 469.61852586 C63.71749151 469.63071419 76.12208793 469.64101391 88.52669191 469.64440095 C89.71611553 469.6447303 89.71611553 469.6447303 90.9295679 469.64506631 C92.12171361 469.64539372 92.12171361 469.64539372 93.33794308 469.64572775 C94.94823027 469.64617121 96.55851746 469.64661777 98.16880465 469.64706743 C99.36692216 469.64739957 99.36692216 469.64739957 100.58924407 469.64773843 C113.51747196 469.6516823 126.44564336 469.66912573 139.37384945 469.69242695 C152.67216814 469.71620016 165.97045856 469.72860554 179.26879883 469.72976887 C186.72512788 469.73068236 194.18138332 469.73635179 201.63769197 469.75458848 C207.98971405 469.7700704 214.34163975 469.7750627 220.69367713 469.76685038 C223.92812324 469.76297206 227.16233738 469.76540183 230.39676714 469.77790773 C257.79149161 469.8775613 281.7641107 466.16470108 303.08774996 447.40683305 C303.8495859 446.74038774 304.61142183 446.07394243 305.39634371 445.3873018 C320.48788808 431.28965464 330.37256155 409.64094751 331.18158627 389.01442575 C331.22235875 386.15002352 331.23062717 383.28716805 331.22819185 380.42247331 C331.23116297 379.32522225 331.2341341 378.22797119 331.23719525 377.0974701 C331.24585814 373.42527408 331.24738848 369.75311075 331.24888277 366.08090532 C331.25351273 363.44576685 331.25851741 360.8106313 331.26392794 358.17549455 C331.27748192 351.01803992 331.28353178 343.86059092 331.28793859 336.7031256 C331.29070676 332.22760482 331.29494522 327.75208619 331.29944277 323.27656686 C331.31163305 310.86772012 331.3219319 298.45887508 331.32531786 286.05002248 C331.32553743 285.25653829 331.32575699 284.46305409 331.32598321 283.64552492 C331.32620149 282.85021301 331.32641977 282.0549011 331.32664466 281.23548883 C331.32708811 279.62406516 331.32753468 278.01264149 331.32798433 276.40121782 C331.32820576 275.60190731 331.32842719 274.8025968 331.32865533 273.97906476 C331.33259842 261.04430676 331.35003857 248.10960527 331.37334386 235.17486907 C331.39711732 221.87206198 331.40952248 208.56928317 331.41068578 195.26645452 C331.41159933 187.80675712 331.41727033 180.3471333 331.43550539 172.8874563 C331.45098773 166.53175022 331.45597941 160.17614046 331.44776729 153.82041908 C331.44388891 150.58395471 331.4463189 147.34772216 331.45882463 144.11127412 C331.55843337 116.71127002 327.84966261 92.73507017 309.08774996 71.40683305 C308.42130465 70.64499712 307.75485933 69.88316118 307.06821871 69.0982393 C292.89955385 53.93067043 271.28853674 44.09375563 250.6014514 43.31299675 C247.72826152 43.27254577 244.85661154 43.26394137 241.9831357 43.26639116 C240.88503022 43.26342004 239.78692473 43.26044891 238.65554333 43.25738776 C234.98645337 43.24873607 231.31739617 43.24719549 227.64829683 43.24570024 C225.01301087 43.24106952 222.37772782 43.23606465 219.74244356 43.23065507 C212.58918025 43.21711028 205.43592256 43.21105287 198.28264856 43.20664442 C193.80930002 43.20387509 189.33595362 43.19963647 184.86260653 43.19514024 C172.4580084 43.18295191 160.05341198 43.17265219 147.648808 43.16926515 C146.45938439 43.1689358 146.45938439 43.1689358 145.24593201 43.1685998 C144.45116821 43.16838152 143.6564044 43.16816324 142.83755684 43.16793835 C141.22726965 43.1674949 139.61698246 43.16704833 138.00669527 43.16659868 C136.80857776 43.16626653 136.80857776 43.16626653 135.58625585 43.16592768 C122.65802795 43.1619838 109.72985656 43.14454037 96.80165046 43.12123916 C83.50333177 43.09746594 70.20504136 43.08506057 56.90670109 43.08389723 C49.45037203 43.08298375 41.99411659 43.07731431 34.53780794 43.05907762 C28.18578587 43.04359571 21.83386017 43.03860341 15.48182279 43.04681572 C12.24737668 43.05069405 9.01316254 43.04826427 5.77873278 43.03575838 C-21.61599169 42.9361048 -45.58861078 46.64896502 -66.91225004 65.40683305 Z " fill="#D4D4D4" transform="translate(137.91225004196167,-0.40683305263519287)"/>
<path d="M0 0 C22.03852652 18.81159856 36.46579334 41.06373377 44.3515625 68.91015625 C44.69316406 70.08835937 45.03476562 71.2665625 45.38671875 72.48046875 C52.97586939 104.60199008 46.3970656 140.65319587 29.30810547 168.61767578 C24.37546539 176.35501988 18.70188925 183.29785232 12.3515625 189.91015625 C11.50851562 190.81636719 10.66546875 191.72257813 9.796875 192.65625 C3.26271042 199.4839785 -3.66358197 204.87441112 -11.6484375 209.91015625 C-12.72738281 210.59980469 -13.80632812 211.28945313 -14.91796875 212 C-42.81131119 228.91784798 -78.23286564 233.93049454 -110.03027344 226.74707031 C-117.81941729 224.77736357 -125.2980262 222.14033195 -132.6484375 218.91015625 C-133.30263672 218.62688477 -133.95683594 218.34361328 -134.63085938 218.05175781 C-164.72593234 204.76588414 -188.43262339 179.18859339 -200.51953125 148.71386719 C-202.47890077 143.51521742 -204.1350825 138.25415274 -205.6484375 132.91015625 C-205.99003906 131.73195313 -206.33164063 130.55375 -206.68359375 129.33984375 C-214.21743998 97.45240157 -207.83557456 61.43465161 -191.0078125 33.60546875 C-172.71931393 4.51560818 -145.47270495 -14.79440926 -112.6484375 -24.08984375 C-111.47023438 -24.43144531 -110.29203125 -24.77304688 -109.078125 -25.125 C-71.91216204 -33.90596927 -29.43835184 -24.14652242 0 0 Z M-137.6484375 37.91015625 C-138.41027344 38.57660156 -139.17210937 39.24304688 -139.95703125 39.9296875 C-154.23015301 53.26281164 -164.79679311 74.32233535 -165.6484375 93.91015625 C-165.7 94.91046875 -165.7515625 95.91078125 -165.8046875 96.94140625 C-166.41856559 119.6548955 -158.67872445 140.82397053 -143.6484375 157.91015625 C-142.64876953 159.05291016 -142.64876953 159.05291016 -141.62890625 160.21875 C-128.29578211 174.49187176 -107.2362584 185.05851186 -87.6484375 185.91015625 C-86.648125 185.96171875 -85.6478125 186.01328125 -84.6171875 186.06640625 C-61.90369825 186.68028434 -40.73462322 178.9404432 -23.6484375 163.91015625 C-22.88660156 163.24371094 -22.12476563 162.57726562 -21.33984375 161.890625 C-7.06672199 148.55750086 3.49991811 127.49797715 4.3515625 107.91015625 C4.403125 106.90984375 4.4546875 105.90953125 4.5078125 104.87890625 C5.12169059 82.165417 -2.61815055 60.99634197 -17.6484375 43.91015625 C-18.31488281 43.14832031 -18.98132813 42.38648438 -19.66796875 41.6015625 C-33.00109289 27.32844074 -54.0606166 16.76180064 -73.6484375 15.91015625 C-74.64875 15.85859375 -75.6490625 15.80703125 -76.6796875 15.75390625 C-99.39317675 15.14002816 -120.56225178 22.8798693 -137.6484375 37.91015625 Z " fill="#D4D4D4" transform="translate(336.6484375,155.08984375)"/>
<path d="M0 0 C6.52984143 5.30549616 9.92921656 11.40483717 12.5625 19.3046875 C13.35381511 31.14397889 12.32590663 39.96176853 4.6484375 49.2265625 C-2.13629399 55.98588301 -10.33833999 59.2023819 -19.8125 59.6171875 C-29.76278878 59.32604308 -37.17251403 55.49804101 -44.16015625 48.60546875 C-50.459218 41.71828822 -52.80207104 34.02582132 -52.6484375 24.76171875 C-51.86413535 15.6260511 -48.03599328 7.28094242 -41.0703125 1.2578125 C-28.6795555 -7.85636134 -12.85904709 -8.94363211 0 0 Z " fill="#D4D4D4" transform="translate(414.4375,90.6953125)"/>
</svg>
